<svg xmlns="http://www.w3.org/2000/svg" viewBox="0 0 36 36"><defs><style>.cls-1{fill:#ffffff;}</style></defs><title>资源 29</title><g id="图层_2" data-name="图层 2"><g id="图层_1-2" data-name="图层 1"><path class="cls-1" d="M18,2A16,16,0,1,1,2,18,16,16,0,0,1,18,2m0-2A18,18,0,1,0,36,18,18,18,0,0,0,18,0Z"/><path class="cls-1" d="M24,13H12a1,1,0,0,0,0,2H24a1,1,0,0,0,0-2Z"/><path class="cls-1" d="M18,13a1,1,0,0,0-1,1V27a1,1,0,0,0,2,0V14a1,1,0,0,0-1-1Z"/><path class="cls-1" d="M24,21H12a1,1,0,0,0,0,2H24a1,1,0,0,0,0-2Z"/><path class="cls-1" d="M14.5,8A1.5,1.5,0,1,0,16,9.5,1.5,1.5,0,0,0,14.5,8Z"/><path class="cls-1" d="M21.5,8A1.5,1.5,0,1,0,23,9.5,1.5,1.5,0,0,0,21.5,8Z"/></g></g></svg>