<svg xmlns="http://www.w3.org/2000/svg" viewBox="0 0 36 34"><defs><style>.cls-1{fill:#ffffff;}</style></defs><title>资源 21</title><g id="图层_2" data-name="图层 2"><g id="图层_1-2" data-name="图层 1"><path class="cls-1" d="M18,2l5.42,9.23L34,13.42l-7.26,7.89L27.85,32,18,27.63,8.15,32,9.26,21.31,2,13.42l10.58-2.19L18,2m0-2a2,2,0,0,0-1.73,1l-5,8.46-9.71,2A2,2,0,0,0,.53,14.77L7.18,22l-1,9.79a2,2,0,0,0,2.8,2l9-4,9,4a2,2,0,0,0,2.8-2l-1-9.79,6.65-7.23a2,2,0,0,0-1.07-3.31l-9.71-2L19.73,1A2,2,0,0,0,18,0Z"/></g></g></svg>