<svg xmlns="http://www.w3.org/2000/svg" viewBox="0 0 32 29"><defs><style>.cls-1{fill:#484848;}</style></defs><title>资源 43</title><g id="图层_2" data-name="图层 2"><g id="图层_1-2" data-name="图层 1"><path class="cls-1" d="M28,2a2,2,0,0,1,2,2V19a2,2,0,0,1-2,2H4a2,2,0,0,1-2-2V4A2,2,0,0,1,4,2H28m0-2H4A4,4,0,0,0,0,4V19a4,4,0,0,0,4,4H28a4,4,0,0,0,4-4V4a4,4,0,0,0-4-4Z"/><rect class="cls-1" x="6" y="27" width="20" height="2" rx="1" ry="1"/><rect class="cls-1" x="15" y="21" width="2" height="7" rx="1" ry="1"/></g></g></svg>