<svg xmlns="http://www.w3.org/2000/svg" viewBox="0 0 41.97 27.82"><defs><style>.cls-1{fill:none;stroke:#fff;stroke-linecap:round;stroke-linejoin:round;stroke-width:3px;}.cls-2{fill:#fff;}</style></defs><title>资源 47</title><g id="图层_2" data-name="图层 2"><g id="图层_1-2" data-name="图层 1"><path class="cls-1" d="M7.65,26.32V14.72A13.31,13.31,0,0,1,21,1.5h0A13.31,13.31,0,0,1,34.32,14.72v11.6"/><path class="cls-1" d="M7.65,26.32H7A5.58,5.58,0,0,1,1.5,20.68h0A5.58,5.58,0,0,1,7,15h.66"/><path class="cls-1" d="M34.32,26.32H35a5.58,5.58,0,0,0,5.49-5.64h0A5.58,5.58,0,0,0,35,15h-.66"/><rect class="cls-2" x="19.47" y="12.5" width="3" height="15" rx="1.5" ry="1.5"/><rect class="cls-2" x="13.47" y="16.5" width="3" height="7" rx="1.5" ry="1.5"/><rect class="cls-2" x="25.47" y="16.5" width="3" height="7" rx="1.5" ry="1.5"/></g></g></svg>