<?xml version="1.0" encoding="utf-8"?>
<!-- Generator: Adobe Illustrator 21.1.0, SVG Export Plug-In . SVG Version: 6.00 Build 0)  -->
<svg version="1.1" id="图层_1" xmlns="http://www.w3.org/2000/svg" xmlns:xlink="http://www.w3.org/1999/xlink" x="0px" y="0px"
	 viewBox="0 0 20 20" style="enable-background:new 0 0 20 20;" xml:space="preserve">
<style type="text/css">
	.st0{fill:#E13228;}
	.st1{fill:#FAFEFE;}
</style>
<circle id="形状_2045" class="st0" cx="10" cy="10" r="10"/>
<path class="st1" d="M9.6,14.9L9.6,14.9c-0.2-0.2-0.2-0.6,0-0.8l3.9-3.9c0.2-0.2,0.6-0.2,0.8,0v0c0.2,0.2,0.2,0.6,0,0.8l-3.9,3.9
	C10.2,15.1,9.8,15.1,9.6,14.9z"/>
<path class="st1" d="M10,15.1L10,15.1c-0.3,0-0.6-0.3-0.6-0.6v-9c0-0.3,0.3-0.6,0.6-0.6h0c0.3,0,0.6,0.3,0.6,0.6v9
	C10.6,14.8,10.3,15.1,10,15.1z"/>
<path class="st1" d="M10.4,14.9L10.4,14.9c0.2-0.2,0.2-0.6,0-0.8l-3.9-3.9c-0.2-0.2-0.6-0.2-0.8,0l0,0c-0.2,0.2-0.2,0.6,0,0.8
	l3.9,3.9C9.8,15.1,10.2,15.1,10.4,14.9z"/>
</svg>
