<svg xmlns="http://www.w3.org/2000/svg" viewBox="0 0 32 32"><defs><style>.cls-1{fill:#9cebb4;}.cls-2{fill:#fff;}</style></defs><title>资源 3</title><g id="图层_2" data-name="图层 2"><g id="图层_1-2" data-name="图层 1"><circle class="cls-1" cx="16" cy="16" r="16"/><circle class="cls-1" cx="16" cy="16" r="8"/><path class="cls-2" d="M21,14a1,1,0,0,1,1,1v2a1,1,0,0,1-1,1H20a1,1,0,0,1-1-1V15a1,1,0,0,1,1-1h1m0-2H20a3,3,0,0,0-3,3v2a3,3,0,0,0,3,3h1a3,3,0,0,0,3-3V15a3,3,0,0,0-3-3Z"/><rect class="cls-2" x="21.5" y="18.21" width="3.41" height="2" rx="1" ry="1" transform="translate(20.38 -10.78) rotate(45)"/><path class="cls-2" d="M12,12H11a3,3,0,0,0-3,3v1h2V15a1,1,0,0,1,1-1h1"/><rect class="cls-2" x="8" y="15" width="7" height="2" rx="1" ry="1"/><rect class="cls-2" x="11" y="12" width="4" height="2" rx="1" ry="1"/><path class="cls-2" d="M11,20h1a3,3,0,0,0,3-3V16H13v1a1,1,0,0,1-1,1H11"/><rect class="cls-2" x="8" y="18" width="4" height="2" rx="1" ry="1" transform="translate(20 38) rotate(-180)"/></g></g></svg>