<svg xmlns="http://www.w3.org/2000/svg" viewBox="0 0 32 32"><defs><style>.cls-1{fill:#ff9caf;}.cls-2{fill:#fff;}</style></defs><title>资源 5</title><g id="图层_2" data-name="图层 2"><g id="图层_1-2" data-name="图层 1"><circle class="cls-1" cx="16" cy="16" r="16"/><rect class="cls-2" x="8" y="10" width="16" height="12" rx="1" ry="1" transform="translate(-6.63 16) rotate(-45)"/><circle class="cls-1" cx="19.54" cy="8.22" r="1" transform="translate(-0.09 16.22) rotate(-45)"/><circle class="cls-1" cx="21.66" cy="10.34" r="1" transform="translate(-0.97 18.34) rotate(-45)"/><circle class="cls-1" cx="23.78" cy="12.46" r="1" transform="translate(-1.85 20.46) rotate(-45)"/><circle class="cls-1" cx="8.22" cy="19.54" r="1" transform="translate(-11.41 11.54) rotate(-45)"/><circle class="cls-1" cx="10.34" cy="21.66" r="1" transform="translate(-12.28 13.66) rotate(-45)"/><circle class="cls-1" cx="12.46" cy="23.78" r="1" transform="translate(-13.16 15.78) rotate(-45)"/><circle class="cls-1" cx="13.88" cy="17.41" r="1.5" transform="translate(-8.25 14.91) rotate(-45)"/><rect class="cls-1" x="13.21" y="15.5" width="7" height="1" rx="0.5" ry="0.5" transform="translate(-6.42 16.5) rotate(-45)"/><rect class="cls-1" x="18.68" y="13.23" width="1" height="2" rx="0.5" ry="0.5" transform="translate(-4.45 17.73) rotate(-45)"/></g></g></svg>