<svg xmlns="http://www.w3.org/2000/svg" viewBox="0 0 32 32"><defs><style>.cls-1{fill:#ffbc80;}.cls-2{fill:#fff;}</style></defs><title>资源 4</title><g id="图层_2" data-name="图层 2"><g id="图层_1-2" data-name="图层 1"><circle class="cls-1" cx="16" cy="16" r="16"/><g id="图层_2-2" data-name="图层 2"><g id="图层_1-2-2" data-name="图层 1-2"><polygon class="cls-2" points="15.21 22.5 8.5 15.79 8.5 13.21 12.21 9.5 19.79 9.5 23.5 13.21 23.5 15.79 16.79 22.5 15.21 22.5"/><path class="cls-2" d="M19.59,10,23,13.41v2.18L16.59,22H15.41L9,15.59V13.41L12.41,10h7.17M20,9H12L8,13v3l7,7h2l7-7V13Z"/><polygon class="cls-1" points="11 13 14 13 16 17 16 19 15 19 11 13"/><polygon class="cls-1" points="21 13 18 13 16 17 16 19 17 19 21 13"/></g></g></g></g></svg>