<svg xmlns="http://www.w3.org/2000/svg" viewBox="0 0 32 32"><defs><style>.cls-1{fill:#93d5f8;}.cls-2{fill:#fff;}</style></defs><title>资源 6</title><g id="图层_2" data-name="图层 2"><g id="图层_1-2" data-name="图层 1"><circle class="cls-1" cx="16" cy="16" r="16"/><path class="cls-2" d="M16,7.94a.89.89,0,0,0-.71.35l-2.58,3.4L8.61,13a.89.89,0,0,0-.44,1.37l2.5,3.45,0,4.23a.89.89,0,0,0,1.15.84L16,21.65l4.13,1.27a.89.89,0,0,0,1.15-.84l0-4.23,2.5-3.45A.89.89,0,0,0,23.39,13l-4.1-1.35-2.58-3.4A.89.89,0,0,0,16,7.94Z"/><rect class="cls-1" x="13" y="14" width="1" height="3" rx="0.5" ry="0.5"/><rect class="cls-1" x="18" y="14" width="1" height="3" rx="0.5" ry="0.5"/></g></g></svg>