<?xml version="1.0" encoding="utf-8"?>
<!-- Generator: Adobe Illustrator 21.1.0, SVG Export Plug-In . SVG Version: 6.00 Build 0)  -->
<svg version="1.1" id="播放量icon" xmlns="http://www.w3.org/2000/svg" xmlns:xlink="http://www.w3.org/1999/xlink" x="0px"
	 y="0px" viewBox="0 0 14 13" style="enable-background:new 0 0 14 13;" xml:space="preserve">
<style type="text/css">
	.st0{fill:none;stroke:#FFFFFF;}
</style>
<path id="圆角矩形_2089" class="st0" d="M0.6,10.6V7c0-3.5,2.9-6.4,6.4-6.4s6.4,2.9,6.4,6.4v3.7"/>
<path id="圆角矩形_2090" class="st0" d="M12,7L12,7c0.8,0,1.4,0.6,1.4,1.4v2.8c0,0.8-0.6,1.4-1.4,1.4l0,0
	c-0.8,0-1.4-0.6-1.4-1.4V8.3C10.7,7.6,11.3,7,12,7z"/>
<path id="圆角矩形_2090_拷贝" class="st0" d="M2,7L2,7c0.8,0,1.4,0.6,1.4,1.4v2.8c0,0.8-0.6,1.4-1.4,1.4l0,0
	c-0.8,0-1.4-0.6-1.4-1.4V8.3C0.6,7.6,1.2,7,2,7z"/>
</svg>
