<?xml version="1.0" encoding="utf-8"?>
<!-- Generator: Adobe Illustrator 21.1.0, SVG Export Plug-In . SVG Version: 6.00 Build 0)  -->
<svg version="1.1" id="图层_1" xmlns="http://www.w3.org/2000/svg" xmlns:xlink="http://www.w3.org/1999/xlink" x="0px" y="0px"
	 viewBox="0 0 10 8" style="enable-background:new 0 0 10 8;" xml:space="preserve">
<style type="text/css">
	.st0{fill:#858585;}
</style>
<g id="圆角矩形_1016">
	<path class="st0" d="M8,1c0.6,0,1,0.4,1,1v4c0,0.6-0.4,1-1,1H2C1.4,7,1,6.6,1,6V2c0-0.6,0.4-1,1-1H8 M8,0H2C0.9,0,0,0.9,0,2v4
		c0,1.1,0.9,2,2,2h6c1.1,0,2-0.9,2-2V2C10,0.9,9.1,0,8,0L8,0z"/>
</g>
</svg>
