<svg xmlns="http://www.w3.org/2000/svg" viewBox="0 0 16 14"><defs><style>.cls-1{fill:#cecece;}.cls-2{fill:#b1b1b1;}.cls-3{fill:#f3f6f6;}</style></defs><title>资源 1</title><g id="图层_2" data-name="图层 2"><g id="图层_1-2" data-name="图层 1"><g id="图层_2-2" data-name="图层 2"><g id="图层_1-2-2" data-name="图层 1-2"><polygon class="cls-1" points="7.21 13.5 0.5 6.79 0.5 4.21 4.21 0.5 11.79 0.5 15.5 4.21 15.5 6.79 8.79 13.5 7.21 13.5"/><path class="cls-2" d="M11.59,1,15,4.41V6.59L8.59,13H7.41L1,6.59V4.41L4.41,1h7.17M12,0H4L0,4V7l7,7H9l7-7V4Z"/><polygon class="cls-3" points="3 4 6 4 8 8 8 10 7 10 3 4"/><polygon class="cls-3" points="13 4 10 4 8 8 8 10 9 10 13 4"/></g></g></g></g></svg>