<?xml version="1.0" encoding="iso-8859-1"?>
<!-- Generator: Adobe Illustrator 19.0.0, SVG Export Plug-In . SVG Version: 6.00 Build 0)  -->
<svg version="1.1" id="&#x56FE;&#x5C42;_1" xmlns="http://www.w3.org/2000/svg" xmlns:xlink="http://www.w3.org/1999/xlink" x="0px"
	 y="0px" width="84px" height="84px" viewBox="0 0 84 84" style="enable-background:new 0 0 84 84;" xml:space="preserve">
<g id="XMLID_15_" style="opacity:0.7;">
	<path id="XMLID_24_" style="fill:#FFFFFF;" d="M42,0C18.804,0,0,18.804,0,42c0,23.196,18.804,42,42,42s42-18.804,42-42
		C84,18.804,65.196,0,42,0z M42,79.927C21.087,79.927,4.073,62.913,4.073,42C4.073,21.087,21.087,4.073,42,4.073
		S79.927,21.087,79.927,42C79.927,62.913,62.913,79.927,42,79.927z"/>
</g>
<g id="XMLID_77_" style="opacity:0.7;">
	<path id="XMLID_72_" style="fill:#FFFFFF;" d="M34.114,60h-2.228C30.849,60,30,59.151,30,58.114V25.886
		C30,24.849,30.849,24,31.886,24h2.228C35.151,24,36,24.849,36,25.886v32.228C36,59.151,35.151,60,34.114,60z"/>
	<path id="XMLID_76_" style="fill:#FFFFFF;" d="M52.114,60h-2.228C48.849,60,48,59.151,48,58.114V25.886
		C48,24.849,48.849,24,49.886,24h2.228C53.151,24,54,24.849,54,25.886v32.228C54,59.151,53.151,60,52.114,60z"/>
</g>
</svg>
