<?xml version="1.0" encoding="iso-8859-1"?>
<!-- Generator: Adobe Illustrator 19.0.0, SVG Export Plug-In . SVG Version: 6.00 Build 0)  -->
<svg version="1.1" id="&#x56FE;&#x5C42;_1" xmlns="http://www.w3.org/2000/svg" xmlns:xlink="http://www.w3.org/1999/xlink" x="0px"
	 y="0px" width="84px" height="84px" viewBox="0 0 84 84" style="enable-background:new 0 0 84 84;" xml:space="preserve">
<g id="XMLID_15_" style="opacity:0.7;">
	<path id="XMLID_24_" style="fill:#FFFFFF;" d="M42,0C18.804,0,0,18.804,0,42c0,23.196,18.804,42,42,42s42-18.804,42-42
		C84,18.804,65.196,0,42,0z M42,79.927C21.087,79.927,4.073,62.913,4.073,42C4.073,21.087,21.087,4.073,42,4.073
		S79.927,21.087,79.927,42C79.927,62.913,62.913,79.927,42,79.927z"/>
	<path id="XMLID_37_" style="fill:#FFFFFF;" d="M34.155,24.665c-0.251-0.155-0.536-0.233-0.821-0.233
		c-0.263,0-0.527,0.066-0.765,0.199c-0.496,0.277-0.803,0.8-0.803,1.368v32c0,0.568,0.307,1.091,0.803,1.368
		c0.238,0.133,0.501,0.199,0.765,0.199c0.285,0,0.57-0.078,0.821-0.232l26-16c0.464-0.285,0.746-0.791,0.746-1.335
		c0-0.544-0.282-1.05-0.746-1.335L34.155,24.665z"/>
</g>
</svg>
