<?xml version="1.0" encoding="utf-8"?>
<!-- Generator: Adobe Illustrator 21.1.0, SVG Export Plug-In . SVG Version: 6.00 Build 0)  -->
<svg version="1.1" id="图层_1" xmlns="http://www.w3.org/2000/svg" xmlns:xlink="http://www.w3.org/1999/xlink" x="0px" y="0px"
	 viewBox="0 0 50 50" style="enable-background:new 0 0 50 50;" xml:space="preserve">
<style type="text/css">
	.st0{fill:#EEEEEE;}
	.st1{fill:#333333;}
	.st2{fill:none;stroke:#333333;}
</style>
<g id="椭圆_2056_拷贝">
	<path class="st0" d="M25,1c13.2,0,24,10.8,24,24S38.2,49,25,49S1,38.2,1,25S11.8,1,25,1 M25,0C11.2,0,0,11.2,0,25s11.2,25,25,25
		s25-11.2,25-25S38.8,0,25,0L25,0z"/>
</g>
<rect id="矩形_2061" x="20" y="14" class="st1" width="10" height="1"/>
<rect id="矩形_2061_拷贝" x="13" y="18" class="st1" width="24" height="1"/>
<path id="矩形_2063" class="st2" d="M33,20v17H17V20"/>
<g id="组_70">
	<rect id="矩形_2064" x="22" y="24" class="st1" width="1" height="8"/>
	<rect id="矩形_2064_拷贝" x="27" y="24" class="st1" width="1" height="8"/>
</g>
</svg>
