<svg id="图层_1" data-name="图层 1" xmlns="http://www.w3.org/2000/svg" viewBox="0 0 50 50"><defs><style>.cls-1{fill:#eee;}.cls-2{opacity:0.6;isolation:isolate;}.cls-3{fill:#333;}</style></defs><title>心</title><g id="椭圆_2056" data-name="椭圆 2056"><path class="cls-1" d="M25,1A24,24,0,1,1,1,25,24,24,0,0,1,25,1m0-1A25,25,0,1,0,50,25,25,25,0,0,0,25,0Z"/></g><g class="cls-2"><path class="cls-3" d="M30.5,16.5A5.47,5.47,0,0,1,36,22.71c-.49,5.92-11,12.09-11,12.09S14.54,28.63,14,22.71A5.5,5.5,0,1,1,25,22c0,.09,0,.19,0,.28h0c0-.09,0-.19,0-.28a5.5,5.5,0,0,1,5.5-5.5h0m0-1h0a6.5,6.5,0,0,0-5.5,3A6.5,6.5,0,0,0,13,22a6.43,6.43,0,0,0,.06.84c.52,6.32,11,12.56,11.43,12.82a1,1,0,0,0,1,0c.45-.26,10.91-6.5,11.44-12.87A6,6,0,0,0,37,22a6.5,6.5,0,0,0-6.5-6.5Z"/></g></svg>