<?xml version="1.0" encoding="utf-8"?>
<!-- Generator: Adobe Illustrator 21.1.0, SVG Export Plug-In . SVG Version: 6.00 Build 0)  -->
<svg version="1.1" id="图层_1" xmlns="http://www.w3.org/2000/svg" xmlns:xlink="http://www.w3.org/1999/xlink" x="0px" y="0px"
	 viewBox="0 0 50 50" style="enable-background:new 0 0 50 50;" xml:space="preserve">
<style type="text/css">
	.st0{fill:#EEEEEE;}
	.st1{enable-background:new    ;}
	.st2{fill:#E13228;}
</style>
<g id="椭圆_2056">
	<path class="st0" d="M25,1c13.2,0,24,10.8,24,24S38.2,49,25,49S1,38.2,1,25S11.8,1,25,1 M25,0C11.2,0,0,11.2,0,25s11.2,25,25,25
		s25-11.2,25-25S38.8,0,25,0L25,0z"/>
</g>
<g class="st1">
	<path class="st2" d="M25,35.3c-0.1,0-0.2,0-0.3-0.1c-0.4-0.3-10.7-6.4-11.2-12.5c0-0.2-0.1-0.5-0.1-0.7c0-3.3,2.7-6,6-6
		c2.5,0,4.6,1.5,5.5,3.6c0.9-2.1,3-3.6,5.5-3.6c3.3,0,6,2.7,6,6c0,0.3,0,0.5-0.1,0.8C35.9,28.9,25.7,35,25.3,35.2
		C25.2,35.3,25.1,35.3,25,35.3z"/>
	<path class="st2" d="M30.5,16.5c3,0,5.5,2.5,5.5,5.5c0,0.2,0,0.5-0.1,0.7c-0.5,5.9-11,12.1-11,12.1s-10.5-6.2-11-12.1
		c0-0.2-0.1-0.5-0.1-0.7c0-3,2.5-5.5,5.5-5.5S25,19,25,22c0,0.1,0,0.2,0,0.3h0c0-0.1,0-0.2,0-0.3C25,19,27.5,16.5,30.5,16.5
		L30.5,16.5 M30.5,15.5C30.5,15.5,30.5,15.5,30.5,15.5L30.5,15.5c-2.3,0-4.3,1.2-5.5,3c-1.2-1.8-3.2-3-5.5-3c-3.6,0-6.5,2.9-6.5,6.5
		c0,0.3,0,0.5,0.1,0.8c0.5,6.3,11,12.6,11.4,12.8c0.2,0.1,0.3,0.1,0.5,0.1c0.2,0,0.4,0,0.5-0.1c0.4-0.3,10.9-6.5,11.4-12.9
		c0-0.3,0.1-0.5,0.1-0.8c0-1.7-0.7-3.4-1.9-4.6C33.9,16.2,32.2,15.5,30.5,15.5L30.5,15.5z"/>
</g>
</svg>
