<?xml version="1.0" encoding="utf-8"?>
<!-- Generator: Adobe Illustrator 21.1.0, SVG Export Plug-In . SVG Version: 6.00 Build 0)  -->
<svg version="1.1" id="图层_1" xmlns="http://www.w3.org/2000/svg" xmlns:xlink="http://www.w3.org/1999/xlink" x="0px" y="0px"
	 viewBox="0 0 50 50" style="enable-background:new 0 0 50 50;" xml:space="preserve">
<style type="text/css">
	.st0{fill:#EEEEEE;}
	.st1{fill:#333333;}
</style>
<title>心</title>
<g id="椭圆_2056">
	<path class="st0" d="M25,1c13.3,0,24,10.7,24,24S38.3,49,25,49S1,38.3,1,25S11.7,1,25,1 M25,0C11.2,0,0,11.2,0,25s11.2,25,25,25
		s25-11.2,25-25S38.8,0,25,0z"/>
</g>
<g>
	<path class="st1" d="M30.5,16.5c3,0,5.5,2.4,5.5,5.4c0,0.3,0,0.5,0,0.8c-0.5,5.9-11,12.1-11,12.1s-10.5-6.2-11-12.1
		c-0.2-3,2.1-5.7,5.1-5.9S24.8,19,25,22c0,0.1,0,0.2,0,0.3l0,0c0-0.1,0-0.2,0-0.3C25,19,27.5,16.5,30.5,16.5L30.5,16.5 M30.5,15.5
		L30.5,15.5c-2.2,0-4.3,1.1-5.5,3c-1.9-3-5.9-3.9-9-2c-1.9,1.2-3,3.3-3,5.5c0,0.3,0,0.6,0.1,0.8c0.5,6.3,11,12.6,11.4,12.8
		c0.3,0.2,0.7,0.2,1,0c0.5-0.3,10.9-6.5,11.4-12.9c0-0.3,0.1-0.5,0.1-0.8C37,18.4,34.1,15.5,30.5,15.5z"/>
</g>
</svg>
