<svg id="图层_1" data-name="图层 1" xmlns="http://www.w3.org/2000/svg" viewBox="0 0 64 64"><defs><style>.cls-1{fill:#e13228;}.cls-2{fill:#fff;}</style></defs><title>私人电台暂停</title><circle id="椭圆_2088" data-name="椭圆 2088" class="cls-1" cx="32" cy="32" r="32"/><path id="圆角矩形_1" data-name="圆角矩形 1" class="cls-2" d="M24,19.56h0a2.67,2.67,0,0,1,2.67,2.67V41.78A2.67,2.67,0,0,1,24,44.44h0a2.67,2.67,0,0,1-2.67-2.67V22.22A2.67,2.67,0,0,1,24,19.56Z"/><path id="圆角矩形_1_拷贝" data-name="圆角矩形 1 拷贝" class="cls-2" d="M40,19.56h0a2.67,2.67,0,0,1,2.67,2.67V41.78A2.67,2.67,0,0,1,40,44.44h0a2.67,2.67,0,0,1-2.67-2.67V22.22A2.67,2.67,0,0,1,40,19.56Z"/></svg>