<?xml version="1.0" encoding="utf-8"?>
<!-- Generator: Adobe Illustrator 19.0.0, SVG Export Plug-In . SVG Version: 6.00 Build 0)  -->
<svg version="1.1" id="图层_1" xmlns="http://www.w3.org/2000/svg" xmlns:xlink="http://www.w3.org/1999/xlink" x="0px" y="0px"
	 viewBox="1249.1 66.4 750 699" style="enable-background:new 1249.1 66.4 750 699;" xml:space="preserve">
<title>资源 4</title>
<g>
	<g>
		<g id="图层_2">
			<g id="图层_1-2">
				<path d="M1986.5,139.4L1986.5,139.4c0,24.9-20.1,45-45,45H1476c-24.9,0-45-20.1-45-45l0,0c0-24.9,20.1-45,45-45h465.5
					C1966.3,94.4,1986.5,114.5,1986.5,139.4z"/>
			</g>
		</g>
	</g>
	<g>
		<g id="图层_2_1_">
			<g id="图层_1-2_1_">
				<path d="M1986.5,419.9L1986.5,419.9c0,24.9-20.1,45-45,45H1476c-24.9,0-45-20.1-45-45l0,0c0-24.9,20.1-45,45-45h465.5
					C1966.3,374.9,1986.5,395,1986.5,419.9z"/>
			</g>
		</g>
	</g>
	<g>
		<g id="图层_2_2_">
			<g id="图层_1-2_2_">
				<path d="M1986.5,700.4L1986.5,700.4c0,24.9-20.1,45-45,45H1476c-24.9,0-45-20.1-45-45l0,0c0-24.9,20.1-45,45-45h465.5
					C1966.3,655.4,1986.5,675.5,1986.5,700.4z"/>
			</g>
		</g>
	</g>
	<circle cx="1318.5" cy="139.4" r="45"/>
	<circle cx="1318.5" cy="419.9" r="45"/>
	<circle cx="1318.5" cy="700.4" r="45"/>
</g>
</svg>
