<?xml version="1.0" encoding="utf-8"?>
<!-- Generator: Adobe Illustrator 21.1.0, SVG Export Plug-In . SVG Version: 6.00 Build 0)  -->
<svg version="1.1" id="批量操作icon" xmlns="http://www.w3.org/2000/svg" xmlns:xlink="http://www.w3.org/1999/xlink" x="0px"
	 y="0px" viewBox="0 0 12 12" style="enable-background:new 0 0 12 12;" xml:space="preserve">
<style type="text/css">
	.st0{fill:#858585;}
</style>
<g id="圆角矩形_2369">
	<path class="st0" d="M3.5,1.5c0.6,0,1,0.4,1,1v1c0,0.6-0.4,1-1,1h-1c-0.6,0-1-0.4-1-1v-1c0-0.6,0.4-1,1-1H3.5 M3.5,0.5h-1
		c-1.1,0-2,0.9-2,2v1c0,1.1,0.9,2,2,2h1c1.1,0,2-0.9,2-2v-1C5.5,1.4,4.6,0.5,3.5,0.5L3.5,0.5z"/>
</g>
<g id="圆角矩形_2369_拷贝">
	<path class="st0" d="M9.5,1.5c0.6,0,1,0.4,1,1v1c0,0.6-0.4,1-1,1h-1c-0.6,0-1-0.4-1-1v-1c0-0.6,0.4-1,1-1H9.5 M9.5,0.5h-1
		c-1.1,0-2,0.9-2,2v1c0,1.1,0.9,2,2,2h1c1.1,0,2-0.9,2-2v-1C11.5,1.4,10.6,0.5,9.5,0.5L9.5,0.5z"/>
</g>
<g id="圆角矩形_2369_拷贝_2">
	<path class="st0" d="M3.5,7.5c0.6,0,1,0.4,1,1v1c0,0.6-0.4,1-1,1h-1c-0.6,0-1-0.4-1-1v-1c0-0.6,0.4-1,1-1H3.5 M3.5,6.5h-1
		c-1.1,0-2,0.9-2,2v1c0,1.1,0.9,2,2,2h1c1.1,0,2-0.9,2-2v-1C5.5,7.4,4.6,6.5,3.5,6.5L3.5,6.5z"/>
</g>
<g id="圆角矩形_2369_拷贝_2-2">
	<path class="st0" d="M9.5,7.5c0.6,0,1,0.4,1,1v1c0,0.6-0.4,1-1,1h-1c-0.6,0-1-0.4-1-1v-1c0-0.6,0.4-1,1-1H9.5 M9.5,6.5h-1
		c-1.1,0-2,0.9-2,2v1c0,1.1,0.9,2,2,2h1c1.1,0,2-0.9,2-2v-1C11.5,7.4,10.6,6.5,9.5,6.5L9.5,6.5z"/>
</g>
</svg>
