<?xml version="1.0" encoding="utf-8"?>
<!-- Generator: Adobe Illustrator 19.0.0, SVG Export Plug-In . SVG Version: 6.00 Build 0)  -->
<svg version="1.1" id="图层_1" xmlns="http://www.w3.org/2000/svg" xmlns:xlink="http://www.w3.org/1999/xlink" x="0px" y="0px"
	 viewBox="1104 -120.1 1036 1080" style="enable-background:new 1104 -120.1 1036 1080;" xml:space="preserve">
<title>资源 4</title>
<g>
	<g id="图层_2">
		<g id="图层_1-2">
			<path d="M1622-113.1L1622-113.1c24.9,0,45,20.1,45,45v465.5c0,24.9-20.1,45-45,45l0,0c-24.9,0-45-20.1-45-45V-68.1
				C1577-93,1597.1-113.1,1622-113.1z"/>
		</g>
	</g>
	<path d="M1622,936.4c-66.3,0-130.6-13-191.1-38.6c-58.5-24.7-111-60.1-156.1-105.2c-45.1-45.1-80.5-97.6-105.2-156.1
		C1144,576,1131,511.7,1131,445.4c0-75.9,16.9-148.7,50.1-216.3c31.7-64.5,78.1-122.3,134.4-167.3c19.4-15.5,47.7-12.4,63.2,7
		c15.5,19.4,12.4,47.7-7,63.2c-46,36.8-84,84.1-109.8,136.7c-27.1,55.2-40.9,114.6-40.9,176.6c0,54.2,10.6,106.7,31.5,156.1
		c20.2,47.7,49.1,90.6,86,127.5c36.8,36.8,79.7,65.8,127.5,86c49.4,20.9,101.9,31.5,156.1,31.5s106.7-10.6,156.1-31.5
		c47.7-20.2,90.6-49.1,127.5-86s65.8-79.7,86-127.5c20.9-49.4,31.5-101.9,31.5-156.1c0-62.1-13.8-121.7-41.1-177
		c-26-52.8-64.1-100.1-110.3-136.8c-19.4-15.5-22.6-43.8-7.2-63.2c15.5-19.4,43.8-22.6,63.2-7.2c56.5,45,103.1,102.9,134.9,167.5
		c33.4,67.8,50.3,140.7,50.3,216.7c0,66.3-13,130.6-38.6,191.1c-24.7,58.5-60.1,111-105.2,156.1s-97.6,80.5-156.1,105.2
		C1752.6,923.4,1688.3,936.4,1622,936.4z"/>
</g>
</svg>
