<svg xmlns="http://www.w3.org/2000/svg" viewBox="0 0 16 14"><defs><style>.cls-1{fill:#fc6;}.cls-2{fill:#fb3;}.cls-3{fill:#f79200;}</style></defs><title>资源 1</title><g id="图层_2" data-name="图层 2"><g id="图层_1-2" data-name="图层 1"><polygon class="cls-1" points="7.2 13.5 0.5 6.8 0.5 4.2 4.2 0.5 11.8 0.5 15.5 4.2 15.5 6.8 8.8 13.5 7.2 13.5"/><path class="cls-2" d="M11.6,1,15,4.4V6.6L8.6,13H7.4L1,6.6V4.4L4.4,1h7.2M12,0H4L0,4V7l7,7H9l7-7V4L12,0Z"/><polygon class="cls-3" points="3 4 6 4 8 8 8 10 7 10 3 4"/><polygon class="cls-3" points="13 4 10 4 8 8 8 10 9 10 13 4"/></g></g></svg>