<?xml version="1.0" encoding="utf-8"?>
<!-- Generator: Adobe Illustrator 21.1.0, SVG Export Plug-In . SVG Version: 6.00 Build 0)  -->
<svg version="1.1" id="图层_1" xmlns="http://www.w3.org/2000/svg" xmlns:xlink="http://www.w3.org/1999/xlink" x="0px" y="0px"
	 viewBox="0 0 17 17" style="enable-background:new 0 0 17 17;" xml:space="preserve">
<style type="text/css">
	.st0{fill:#7C7C7C;}
</style>
<g id="椭圆_3199">
	<path class="st0" d="M8.5,1c1.8,0,3.3,1.5,3.3,3.3s-1.5,3.3-3.3,3.3S5.2,6.1,5.2,4.3S6.7,1,8.5,1 M8.5,0C6.1,0,4.2,1.9,4.2,4.3
		s1.9,4.3,4.3,4.3s4.3-1.9,4.3-4.3S10.9,0,8.5,0L8.5,0z"/>
</g>
<g>
	<path class="st0" d="M11,10.6c2.2,0,4,1.8,4,4v0.6c0,0.3,0,0.5-0.1,0.8H2.1C2,15.8,2,15.5,2,15.2v-0.6c0-2.2,1.8-4,4-4L11,10.6
		 M11,9.6H6c-2.8,0-5,2.2-5,5v0.6c0,0.6,0.1,1.2,0.4,1.8h14.3c0.2-0.6,0.4-1.2,0.4-1.8v-0.6C16,11.8,13.8,9.6,11,9.6L11,9.6z"/>
</g>
</svg>
