<?xml version="1.0" encoding="utf-8"?>
<!-- Generator: Adobe Illustrator 21.1.0, SVG Export Plug-In . SVG Version: 6.00 Build 0)  -->
<svg version="1.1" id="图层_1" xmlns="http://www.w3.org/2000/svg" xmlns:xlink="http://www.w3.org/1999/xlink" x="0px" y="0px"
	 viewBox="0 0 50 50" style="enable-background:new 0 0 50 50;" xml:space="preserve">
<style type="text/css">
	.st0{fill-rule:evenodd;clip-rule:evenodd;fill:#FFFFFF;}
	.st1{fill:#DBDCDC;}
	.st2{fill:#C80000;}
	.st3{fill:#FF8A95;}
	.st4{fill:#FF1E36;}
	.st5{fill:#FF6000;}
</style>
<title>资源 38</title>
<g>
	<g>
		<g>
			<path class="st0" d="M25,49.8C11.4,49.8,0.2,38.6,0.2,25C0.2,11.4,11.4,0.2,25,0.2c13.6,0,24.8,11.1,24.8,24.8
				C49.8,38.6,38.6,49.8,25,49.8z"/>
		</g>
		<g>
			<path class="st1" d="M25,0.5c13.5,0,24.5,11,24.5,24.5c0,13.5-11,24.5-24.5,24.5c-13.5,0-24.5-11-24.5-24.5
				C0.5,11.5,11.5,0.5,25,0.5 M25,0L25,0C11.2,0,0,11.2,0,25v0c0,13.8,11.2,25,25,25h0c13.8,0,25-11.2,25-25v0C50,11.2,38.8,0,25,0
				L25,0z"/>
		</g>
	</g>
	<g>
		<path class="st2" d="M10.1,21.4c-0.3,1.1-0.4,2.3-0.4,3.5c0,5.7,3.2,10.6,7.9,13c0,0,1-1.6,2.4-3.1c1.2-1.2,2.8-2.2,3-2.3
			C16.7,31.9,11.6,27.4,10.1,21.4z"/>
		<path class="st3" d="M38.6,21.2c-1.3-5.1-5.3-9.2-10.4-10.5c-4.5,0.9-8.2,3.9-10.1,7.8c-0.9,1.9-1.5,4-1.5,6.3
			c0-4.1,3.1-7.4,7.1-7.7c0.2,0,0.4,0,0.6,0c0.2,0,0.5,0,0.7,0c0,0,0.1,0,0.1,0c0,0,0,0,0,0c6.6,0.4,12,5.1,13.4,11.3
			c0.3-1.2,0.4-2.4,0.4-3.6C39.1,23.6,38.9,22.4,38.6,21.2z"/>
		<path class="st4" d="M28.2,10.7c-1.2-0.3-2.5-0.5-3.8-0.5c-6.9,0-12.7,4.8-14.3,11.2c1.5,6,6.6,10.5,12.9,11.1c0,0,0,0,0,0
			c-3.6-0.7-6.4-3.8-6.4-7.6c0-2.3,0.5-4.4,1.5-6.3C20,14.5,23.7,11.6,28.2,10.7z"/>
		<path class="st5" d="M38.7,34.6c-1.1,0.3-2.5,0.6-3.7,0.4c1.8-1.9,3-4.1,3.6-6.5c-1.4-6.2-6.9-10.9-13.4-11.3c3.9,0.4,7,3.7,7,7.7
			c0,3.3-1.6,5.4-3.9,7.2c-0.8,0.6-1.7,1.2-2.6,1.8c-3.5,2.2-5.5,5.2-5.5,5.2s3.7-1.5,8.7,0.1c5,1.6,7.3,0,7.3,0l2-2.4l2.1-2.6
			C40.3,34.1,39.6,34.4,38.7,34.6z"/>
	</g>
</g>
</svg>
