<?xml version="1.0" encoding="utf-8"?>
<!-- Generator: Adobe Illustrator 21.1.0, SVG Export Plug-In . SVG Version: 6.00 Build 0)  -->
<svg version="1.1" id="图层_1" xmlns="http://www.w3.org/2000/svg" xmlns:xlink="http://www.w3.org/1999/xlink" x="0px" y="0px"
	 viewBox="0 0 17 17" style="enable-background:new 0 0 17 17;" xml:space="preserve">
<style type="text/css">
	.st0{fill:none;stroke:#7C7C7C;}
	.st1{fill:#7C7C7C;}
</style>
<circle class="st0" cx="8.5" cy="8.5" r="1.5"/>
<g>
	<path class="st1" d="M8.6,1c0.4,0,0.8,0.3,1,0.7l0.2,0.5l0.5,0.1c0.5,0.1,1,0.3,1.4,0.6l0.4,0.2l0.5-0.2c0.1-0.1,0.3-0.1,0.5-0.1
		c0.3,0,0.6,0.1,0.8,0.3C14.1,3.5,14.2,4,14,4.4l-0.2,0.5L14,5.3c0.3,0.4,0.5,0.9,0.6,1.4l0.1,0.5l0.5,0.2C15.7,7.6,16,8,16,8.4v0.2
		c0,0.4-0.3,0.8-0.7,0.9l-0.5,0.2l-0.1,0.5c-0.1,0.5-0.3,1-0.6,1.4L13.9,12l0.2,0.5c0.2,0.4,0.1,0.9-0.2,1.2
		c-0.2,0.2-0.5,0.3-0.8,0.3c-0.2,0-0.3,0-0.4-0.1l-0.5-0.2l-0.4,0.2c-0.5,0.3-1,0.5-1.5,0.6l-0.5,0.1l-0.2,0.5C9.4,15.7,9,16,8.6,16
		H8.4c-0.4,0-0.8-0.3-0.9-0.7l-0.2-0.5l-0.5-0.1c-0.5-0.1-1-0.3-1.5-0.6l-0.4-0.2L4.4,14c-0.1,0.1-0.3,0.1-0.4,0.1
		c-0.3,0-0.6-0.1-0.8-0.3C2.9,13.5,2.8,13,3,12.6l0.2-0.5L3,11.7c-0.3-0.5-0.5-0.9-0.6-1.5L2.2,9.7L1.7,9.6C1.3,9.4,1,9,1,8.6V8.4
		c0-0.4,0.3-0.8,0.7-1l0.5-0.2l0.1-0.5c0.1-0.5,0.4-1,0.6-1.5l0.2-0.4L3,4.4C2.8,4,2.9,3.5,3.2,3.2C3.4,3,3.7,2.9,4,2.9
		c0.2,0,0.3,0,0.4,0.1l0.5,0.2L5.3,3c0.4-0.2,0.9-0.4,1.4-0.6l0.5-0.1l0.2-0.5C7.6,1.3,8,1,8.4,1H8.6 M8.6,0H8.4
		C7.5,0,6.8,0.6,6.5,1.3C5.9,1.5,5.4,1.7,4.9,2C4.6,1.9,4.3,1.9,4,1.9c-0.5,0-1.1,0.2-1.5,0.6C1.9,3.1,1.7,4,2.1,4.8
		C1.8,5.3,1.5,5.9,1.3,6.5C0.6,6.8,0,7.5,0,8.4v0.2c0,0.9,0.6,1.6,1.3,1.9c0.2,0.6,0.4,1.2,0.7,1.7c-0.3,0.8-0.2,1.7,0.4,2.3
		c0.4,0.4,1,0.6,1.5,0.6c0.3,0,0.5-0.1,0.8-0.2c0.5,0.3,1.1,0.5,1.7,0.7c0.3,0.8,1,1.3,1.9,1.3h0.2c0.9,0,1.6-0.6,1.9-1.3
		c0.6-0.2,1.2-0.4,1.7-0.7c0.3,0.1,0.5,0.2,0.8,0.2c0.6,0,1.1-0.2,1.5-0.6c0.6-0.6,0.8-1.6,0.4-2.3c0.3-0.5,0.5-1.1,0.7-1.7
		c0.8-0.3,1.3-1,1.3-1.9V8.4c0-0.9-0.6-1.6-1.3-1.9c-0.2-0.6-0.4-1.1-0.7-1.7C15.1,4,15,3.1,14.3,2.4c-0.4-0.4-0.9-0.6-1.5-0.6
		c-0.3,0-0.6,0.1-0.9,0.2c-0.5-0.3-1.1-0.5-1.7-0.7C10.2,0.6,9.5,0,8.6,0L8.6,0z"/>
</g>
</svg>
