<svg xmlns="http://www.w3.org/2000/svg" viewBox="0 0 36 36"><defs><style>.cls-1{fill:#e13228;}</style></defs><title>资源 37</title><g id="图层_2" data-name="图层 2"><g id="图层_1-2" data-name="图层 1"><path class="cls-1" d="M18,2A16,16,0,1,1,2,18,16,16,0,0,1,18,2m0-2A18,18,0,1,0,36,18,18,18,0,0,0,18,0Z"/><path class="cls-1" d="M27,16c0-.1,0-.19,0-.29v-.08a5,5,0,0,0-4.16-4.54,4.3,4.3,0,0,0-.76-.08h-.18a3.9,3.9,0,0,0-.56.06A5,5,0,0,0,18,13a5,5,0,0,0-3.31-2,3.9,3.9,0,0,0-.56-.06h-.18a4.3,4.3,0,0,0-.76.08A5,5,0,0,0,9,15.63v.08c0,.1,0,.19,0,.29s0,0,0,.07c-.11,3.12,2.14,7.24,9,10.93,6.85-3.69,9.11-7.81,9-10.93C27,16,27,16,27,16Z"/></g></g></svg>