<svg xmlns="http://www.w3.org/2000/svg" viewBox="0 0 36 36"><defs><style>.cls-1{fill:#484848;}</style></defs><title>资源 34</title><g id="图层_2" data-name="图层 2"><g id="图层_1-2" data-name="图层 1"><path class="cls-1" d="M18,2A16,16,0,1,1,2,18,16,16,0,0,1,18,2m0-2A18,18,0,1,0,36,18,18,18,0,0,0,18,0Z"/><path class="cls-1" d="M22.22,13h0m-8.28,0h.12l.27,0h.08a3,3,0,0,1,2,1.17,2,2,0,0,0,3.21,0,3,3,0,0,1,2-1.17h.08l.26,0h.13a2.29,2.29,0,0,1,.38,0h.05A3,3,0,0,1,25,15.78v.11s0,.1,0,.15h0s0,.07,0,.1c.1,2.77-2.49,5.93-7,8.57-4.5-2.64-7.1-5.8-7-8.57t0-.1h0c0-.05,0-.1,0-.15v-.1a3,3,0,0,1,2.48-2.72h.05a2.28,2.28,0,0,1,.38,0M22,11h-.13a3.9,3.9,0,0,0-.56.06A5,5,0,0,0,18,13a5,5,0,0,0-3.31-2,3.9,3.9,0,0,0-.56-.06h-.18a4.3,4.3,0,0,0-.76.08A5,5,0,0,0,9,15.63v.08c0,.1,0,.19,0,.29s0,0,0,.07c-.11,3.12,2.14,7.24,9,10.93,6.85-3.69,9.11-7.81,9-10.93,0,0,0,0,0-.07s0-.19,0-.29v-.08a5,5,0,0,0-4.16-4.54,4.3,4.3,0,0,0-.76-.08Z"/></g></g></svg>