<svg xmlns="http://www.w3.org/2000/svg" viewBox="0 0 36 36"><defs><style>.cls-1{fill:#e13228;}</style></defs><title>资源 35</title><g id="图层_2" data-name="图层 2"><g id="图层_1-2" data-name="图层 1"><path class="cls-1" d="M18,2A16,16,0,1,1,2,18,16,16,0,0,1,18,2m0-2A18,18,0,1,0,36,18,18,18,0,0,0,18,0Z"/><path class="cls-1" d="M18,9a1,1,0,0,0-1,1V26a1,1,0,0,0,2,0V10a1,1,0,0,0-1-1Z"/><path class="cls-1" d="M24.9,18a1.14,1.14,0,0,0-.8.34l-6.83,6.76a1.34,1.34,0,0,0,0,1.57A1.09,1.09,0,0,0,18,27a1.14,1.14,0,0,0,.8-.34l6.83-6.76a1.08,1.08,0,0,0,0-1.57A1.09,1.09,0,0,0,24.9,18Z"/><path class="cls-1" d="M11.1,18a1.09,1.09,0,0,0-.77.33,1.08,1.08,0,0,0,0,1.57l6.83,6.76A1.14,1.14,0,0,0,18,27a1.09,1.09,0,0,0,.77-.33,1.34,1.34,0,0,0,0-1.57L11.9,18.34a1.14,1.14,0,0,0-.8-.34Z"/></g></g></svg>