<svg xmlns="http://www.w3.org/2000/svg" viewBox="0 0 40 40"><defs><style>.cls-1{fill:#000;}</style></defs><title>资源 61</title><g id="图层_2" data-name="图层 2"><g id="图层_1-2" data-name="图层 1"><path class="cls-1" d="M20,17a3,3,0,1,1-3,3,3,3,0,0,1,3-3m0-3a6,6,0,1,0,6,6,6,6,0,0,0-6-6Z"/><path class="cls-1" d="M20,3a17,17,0,0,1,2.9.27c.06.63.11,1.27.16,1.93a15,15,0,0,1,5.23,2.17l1.49-1.26a16,16,0,0,1,4.11,4.11l-1.26,1.49a15,15,0,0,1,2.17,5.23l1.93.16a16,16,0,0,1,0,5.81l-1.93.16a15,15,0,0,1-2.17,5.23l1.26,1.49a16,16,0,0,1-4.11,4.11l-1.49-1.26a15,15,0,0,1-5.23,2.17c-.05.66-.1,1.31-.16,1.93a16,16,0,0,1-5.81,0c-.06-.63-.11-1.27-.16-1.93a15,15,0,0,1-5.23-2.17l-1.49,1.26a16,16,0,0,1-4.11-4.11l1.26-1.49A15,15,0,0,1,5.2,23.06L3.27,22.9a16,16,0,0,1,0-5.81l1.93-.16a15,15,0,0,1,2.17-5.23L6.11,10.22a16,16,0,0,1,4.11-4.11l1.49,1.26A15,15,0,0,1,16.94,5.2c.05-.66.1-1.31.16-1.93A17,17,0,0,1,20,3m0-3a19.92,19.92,0,0,0-3.41.31,3,3,0,0,0-2.46,2.56A17.88,17.88,0,0,0,12,3.73a3,3,0,0,0-3.55-.07A19,19,0,0,0,3.66,8.49,3,3,0,0,0,3.73,12a17.91,17.91,0,0,0-.87,2.08A3,3,0,0,0,.31,16.59a19,19,0,0,0,0,6.83,3,3,0,0,0,2.56,2.46A17.89,17.89,0,0,0,3.73,28a3,3,0,0,0-.07,3.55,19,19,0,0,0,4.83,4.83A3,3,0,0,0,12,36.27a17.88,17.88,0,0,0,2.08.87,3,3,0,0,0,2.46,2.56,19,19,0,0,0,6.83,0,3,3,0,0,0,2.46-2.56A17.88,17.88,0,0,0,28,36.27a3,3,0,0,0,3.55.07,19,19,0,0,0,4.83-4.83A3,3,0,0,0,36.27,28a17.89,17.89,0,0,0,.87-2.08,3,3,0,0,0,2.56-2.46,19,19,0,0,0,0-6.83,3,3,0,0,0-2.56-2.46A17.91,17.91,0,0,0,36.27,12a3,3,0,0,0,.07-3.55,19,19,0,0,0-4.83-4.83A3,3,0,0,0,28,3.73a17.88,17.88,0,0,0-2.08-.87A3,3,0,0,0,23.41.31,19.92,19.92,0,0,0,20,0Z"/></g></g></svg>