<svg xmlns="http://www.w3.org/2000/svg" viewBox="0 0 38 38"><defs><style>.cls-1{fill:#fff;}</style></defs><title>资源 32</title><g id="图层_2" data-name="图层 2"><g id="图层_1-2" data-name="图层 1"><path class="cls-1" d="M19,15a4,4,0,1,1-4,4,4,4,0,0,1,4-4m0-2a6,6,0,1,0,6,6,6,6,0,0,0-6-6Z"/><path class="cls-1" d="M19,2a17,17,0,0,1,2.9.27c.06.63.11,1.27.16,1.93a15,15,0,0,1,5.23,2.17l1.49-1.26a16,16,0,0,1,4.11,4.11l-1.26,1.49a15,15,0,0,1,2.17,5.23l1.93.16a16,16,0,0,1,0,5.81l-1.93.16a15,15,0,0,1-2.17,5.23l1.26,1.49a16,16,0,0,1-4.11,4.11l-1.49-1.26a15,15,0,0,1-5.23,2.17c-.05.66-.1,1.31-.16,1.93a16,16,0,0,1-5.81,0c-.06-.63-.11-1.27-.16-1.93a15,15,0,0,1-5.23-2.17L9.22,32.89a16,16,0,0,1-4.11-4.11l1.26-1.49A15,15,0,0,1,4.2,22.06L2.27,21.9a16,16,0,0,1,0-5.81l1.93-.16a15,15,0,0,1,2.17-5.23L5.11,9.22A16,16,0,0,1,9.22,5.11l1.49,1.26A15,15,0,0,1,15.94,4.2c.05-.66.1-1.31.16-1.93A17,17,0,0,1,19,2m0-2a18.93,18.93,0,0,0-3.24.29A2,2,0,0,0,14.1,2.09l0,.53a16.91,16.91,0,0,0-3.15,1.31l-.41-.35a2,2,0,0,0-2.43-.1A18,18,0,0,0,3.48,8.07a2,2,0,0,0,.1,2.43l.35.41a16.91,16.91,0,0,0-1.31,3.15l-.53,0A2,2,0,0,0,.29,15.76a18,18,0,0,0,0,6.49A2,2,0,0,0,2.09,23.9l.53,0a16.91,16.91,0,0,0,1.31,3.15l-.35.41a2,2,0,0,0-.1,2.43,18,18,0,0,0,4.59,4.59,2,2,0,0,0,2.43-.1l.41-.35a16.91,16.91,0,0,0,3.15,1.31l0,.53a2,2,0,0,0,1.65,1.79,18,18,0,0,0,6.49,0,2,2,0,0,0,1.65-1.79l0-.53a16.91,16.91,0,0,0,3.15-1.31l.41.35a2,2,0,0,0,2.43.1,18,18,0,0,0,4.59-4.59,2,2,0,0,0-.1-2.43l-.35-.41a16.91,16.91,0,0,0,1.31-3.15l.53,0a2,2,0,0,0,1.79-1.65,18,18,0,0,0,0-6.49,2,2,0,0,0-1.79-1.65l-.53,0a16.91,16.91,0,0,0-1.31-3.15l.35-.41a2,2,0,0,0,.1-2.43,18,18,0,0,0-4.59-4.59,2,2,0,0,0-2.43.1l-.41.35a16.91,16.91,0,0,0-3.15-1.31l0-.53A2,2,0,0,0,22.24.29,18.93,18.93,0,0,0,19,0Z"/></g></g></svg>