<?xml version="1.0" encoding="utf-8"?>
<!-- Generator: Adobe Illustrator 21.1.0, SVG Export Plug-In . SVG Version: 6.00 Build 0)  -->
<svg version="1.1" id="图层_1" xmlns="http://www.w3.org/2000/svg" xmlns:xlink="http://www.w3.org/1999/xlink" x="0px" y="0px"
	 viewBox="0 0 33 29" style="enable-background:new 0 0 33 29;" xml:space="preserve">
<style type="text/css">
	.st0{fill:#F9C5C5;}
</style>
<title>资源 3</title>
<g id="图层_2">
	<g id="图层_1-2">
		<path class="st0" d="M0,14.5L0,14.5C0,13.7,0.7,13,1.5,13h30c0.8,0,1.5,0.7,1.5,1.5l0,0c0,0.8-0.7,1.5-1.5,1.5h-30
			C0.7,16,0,15.3,0,14.5z"/>
		<path class="st0" d="M30.4,13.4l-13,13c-0.6,0.6-0.7,1.5-0.1,2.2s1.5,0.7,2.2,0.1c0,0,0.1-0.1,0.1-0.1l13-13
			c0.6-0.6,0.5-1.6-0.1-2.2C31.9,12.9,31,12.9,30.4,13.4z"/>
		<path class="st0" d="M17.5,0.4c-0.6,0.6-0.6,1.6,0,2.2l12.9,12.9c0.6,0.6,1.6,0.5,2.2-0.1c0.5-0.6,0.5-1.5,0-2l-13-12.9
			C19-0.1,18-0.1,17.5,0.4z"/>
	</g>
</g>
</svg>
