<?xml version="1.0" encoding="utf-8"?>
<!-- Generator: Adobe Illustrator 21.1.0, SVG Export Plug-In . SVG Version: 6.00 Build 0)  -->
<svg version="1.1" id="图层_1" xmlns="http://www.w3.org/2000/svg" xmlns:xlink="http://www.w3.org/1999/xlink" x="0px" y="0px"
	 viewBox="0 0 33 29" style="enable-background:new 0 0 33 29;" xml:space="preserve">
<style type="text/css">
	.st0{fill:#F9C5C5;}
</style>
<title>资源 1</title>
<g id="图层_2">
	<g id="图层_1-2">
		<path class="st0" d="M33,14.5L33,14.5c0,0.8-0.7,1.5-1.5,1.5h-30C0.7,16,0,15.3,0,14.5l0,0C0,13.7,0.7,13,1.5,13h30
			C32.3,13,33,13.7,33,14.5z"/>
		<path class="st0" d="M2.6,15.6l13-13c0.5-0.7,0.4-1.6-0.3-2.1c-0.6-0.4-1.4-0.4-1.9,0l-13,13c-0.5,0.7-0.4,1.6,0.3,2.1
			C1.3,16,2.1,16,2.6,15.6z"/>
		<path class="st0" d="M15.6,28.5c0.6-0.6,0.6-1.6,0-2.2l-13-12.9C2,12.9,1,13,0.4,13.6c-0.5,0.6-0.5,1.4,0,2l12.9,12.9
			C14,29.1,15,29.1,15.6,28.5z"/>
	</g>
</g>
</svg>
