<?xml version="1.0" encoding="utf-8"?>
<!-- Generator: Adobe Illustrator 21.1.0, SVG Export Plug-In . SVG Version: 6.00 Build 0)  -->
<svg version="1.1" id="图层_1" xmlns="http://www.w3.org/2000/svg" xmlns:xlink="http://www.w3.org/1999/xlink" x="0px" y="0px"
	 viewBox="0 0 20 11" style="enable-background:new 0 0 20 11;" xml:space="preserve">
<style type="text/css">
	.st0{fill:#333333;}
</style>
<title>icon_shoufa</title>
<desc>Created with Sketch.</desc>
<g>
	<rect x="3.7" y="4.9" class="st0" width="4.1" height="0.6"/>
	<path class="st0" d="M0,0v11h20V0H0z M15.9,1.5c0.6,0.4,1.1,0.9,1.5,1.3l-0.6,0.6c-0.3-0.4-0.8-0.9-1.4-1.4L15.9,1.5z M9.6,3.5H6.2
		c0,0.2-0.1,0.4-0.1,0.6h2.6v5.4H7.8V9.2H3.7v0.3H2.8V4.1h2.3c0-0.2,0.1-0.4,0.1-0.6H2V2.6h2C3.8,2.3,3.7,2.1,3.6,1.8l0.9-0.3
		c0.2,0.3,0.3,0.7,0.5,1.1h1.7C6.8,2.3,6.9,1.9,7,1.5l0.9,0.3C7.8,2.1,7.7,2.4,7.6,2.6h2V3.5z M17.6,9.5c-1-0.4-1.9-0.8-2.5-1.2
		c-0.7,0.5-1.5,0.9-2.4,1.2l-0.5-0.8c0.8-0.3,1.5-0.6,2.1-1c-0.5-0.4-0.9-0.9-1.2-1.3c-0.6,1.2-1.4,2.2-2.3,2.9l-0.5-0.8
		c1.1-1,2-2.4,2.6-4.1h-2.1l0.7-2.5L12.4,2L12,3.5h1.2c0.2-0.6,0.3-1.3,0.4-2l0.9,0.1c-0.1,0.7-0.2,1.3-0.4,1.8h3.9v0.8h-4.1
		c-0.1,0.3-0.2,0.5-0.2,0.7H17v0.7c-0.2,0.7-0.6,1.3-1.2,1.8c0.6,0.3,1.4,0.7,2.3,1L17.6,9.5z"/>
	<rect x="3.7" y="6.3" class="st0" width="4.1" height="0.6"/>
	<path class="st0" d="M13.7,5.9C14,6.3,14.4,6.8,15,7.2c0.5-0.4,0.9-0.9,1.1-1.3H13.7z"/>
	<rect x="3.7" y="7.7" class="st0" width="4.1" height="0.7"/>
</g>
</svg>
