<?xml version="1.0" encoding="utf-8"?>
<!-- Generator: Adobe Illustrator 21.1.0, SVG Export Plug-In . SVG Version: 6.00 Build 0)  -->
<svg version="1.1" id="图层_1" xmlns="http://www.w3.org/2000/svg" xmlns:xlink="http://www.w3.org/1999/xlink" x="0px" y="0px"
	 viewBox="0 0 29 14" style="enable-background:new 0 0 29 14;" xml:space="preserve">
<style type="text/css">
	.st0{fill:none;enable-background:new    ;}
	.st1{fill:#999899;}
</style>
<title>资源 55</title>
<path class="st0" d="M14.5,0"/>
<path class="st1" d="M20,0H9C7.6,0,6.5,1.1,6.5,2.5v7C6.5,10.9,7.6,12,9,12h4.5v1H11c-0.3,0-0.5,0.2-0.5,0.5S10.7,14,11,14h7
	c0.3,0,0.5-0.2,0.5-0.5S18.3,13,18,13h-2.5v-1H20c1.4,0,2.5-1.1,2.5-2.5v-7C22.5,1.1,21.4,0,20,0z M21.5,9.5c0,0.8-0.7,1.5-1.5,1.5
	H9c-0.8,0-1.5-0.7-1.5-1.5v-7C7.5,1.7,8.2,1,9,1h11c0.8,0,1.5,0.7,1.5,1.5V9.5z"/>
</svg>
