<?xml version="1.0" encoding="utf-8"?>
<!-- Generator: Adobe Illustrator 21.1.0, SVG Export Plug-In . SVG Version: 6.00 Build 0)  -->
<svg version="1.1" id="图层_1" xmlns="http://www.w3.org/2000/svg" xmlns:xlink="http://www.w3.org/1999/xlink" x="0px" y="0px"
	 viewBox="0 0 20 11" style="enable-background:new 0 0 20 11;" xml:space="preserve">
<style type="text/css">
	.st0{fill:#333333;}
</style>
<title>icon_fufei</title>
<desc>Created with Sketch.</desc>
<g id="Page-1">
	<path id="icon_fufei" class="st0" d="M0,0h20v11H0V0z M5,2.2c-0.3,1.1-0.9,2.1-1.6,3l0.2,0.5C3.8,5.4,4.1,5,4.4,4.7v4.1h0.5V3.8
		c0.2-0.4,0.4-0.9,0.6-1.4L5,2.2z M5.6,3.8v0.5h2.7v3.5c0,0.3-0.1,0.4-0.3,0.4c-0.3,0-0.6,0-1,0l0.1,0.5h1c0.4,0,0.7-0.2,0.7-0.7
		V4.3h1V3.8h-1V2.3H8.3v1.5H5.6z M6.2,5.1L5.8,5.3C6.3,5.9,6.7,6.5,7,7l0.4-0.3C7.2,6.2,6.8,5.7,6.2,5.1z M11.6,3.9h1
		c0,0.2,0,0.3-0.1,0.4h-1L11.6,3.9z M13.1,3.9h1v0.4H13C13.1,4.2,13.1,4,13.1,3.9z M14.6,3.9h1.5V2.6h-1.5V2.3h-0.5v0.4h-1V2.3h-0.5
		v0.4H11V3h1.6v0.4h-1.4l-0.2,1.2h1.4c0,0.1-0.1,0.1-0.1,0.2c-0.3,0.3-0.8,0.5-1.5,0.6L11,5.9c0.2,0,0.4-0.1,0.5-0.1v1.9H12V6.2h3.4
		v1.5h0.5V5.7h-4.3c0.4-0.1,0.7-0.3,0.9-0.5c0.1-0.1,0.2-0.3,0.3-0.5h1.2v0.8h0.5V4.7H16c0,0.2,0,0.3-0.1,0.4
		c-0.1,0.1-0.2,0.1-0.4,0.1c-0.1,0-0.2,0-0.4,0l0.1,0.4c0.1,0,0.2,0,0.3,0c0.4,0,0.6-0.1,0.7-0.2c0.1-0.1,0.2-0.5,0.2-1h-1.9V3.9z
		 M13.1,3h1v0.4h-1V3z M14.6,3h1.1v0.4h-1.1V3z M14.1,7.5l-0.3,0.4c0.8,0.2,1.7,0.5,2.5,0.8l0.3-0.4C15.8,8,15,7.7,14.1,7.5z
		 M13.4,6.4c-0.1,0.6-0.2,1.1-0.6,1.4c-0.4,0.3-1.1,0.4-2.2,0.5l0.2,0.4c1.3-0.1,2.1-0.3,2.4-0.7c0.3-0.3,0.5-0.8,0.6-1.6L13.4,6.4z
		"/>
</g>
</svg>
