<?xml version="1.0" encoding="utf-8"?>
<!-- Generator: Adobe Illustrator 21.1.0, SVG Export Plug-In . SVG Version: 6.00 Build 0)  -->
<svg version="1.1" id="图层_1" xmlns="http://www.w3.org/2000/svg" xmlns:xlink="http://www.w3.org/1999/xlink" x="0px" y="0px"
	 viewBox="0 0 20 11" style="enable-background:new 0 0 20 11;" xml:space="preserve">
<style type="text/css">
	.st0{fill:#333333;}
</style>
<title>icon_yushou</title>
<desc>Created with Sketch.</desc>
<g id="Page-1">
	<path id="icon_yushou" class="st0" d="M0,0h20v11H0V0z M6.4,2.6V3H8c0,0.3-0.1,0.5-0.1,0.8H6.7v3.3h0.5V4.3h2v2.8h0.5V3.8H8.3
		C8.4,3.6,8.4,3.3,8.4,3h1.4V2.6H6.4z M8.6,7.1L8.3,7.4c0.5,0.4,1,0.9,1.3,1.3l0.3-0.3C9.6,7.9,9.2,7.5,8.6,7.1z M7.9,4.7v1.3
		c0,0.6-0.1,1.1-0.4,1.5C7.2,7.8,6.8,8,6.1,8.3l0.3,0.4c0.7-0.2,1.2-0.6,1.5-1c0.3-0.4,0.5-1,0.5-1.8V4.7H7.9z M4.2,3.5L3.9,3.7
		c0.4,0.4,0.7,0.7,1,1H3.5v0.5h1V8c0,0.2-0.1,0.3-0.2,0.3c-0.2,0-0.4,0-0.6,0l0.1,0.5h0.7C4.8,8.7,5,8.5,5,8.1V5.2h0.7
		c-0.1,0.4-0.2,0.7-0.3,1l0.4,0.2C5.9,6,6.1,5.6,6.2,5V4.7H5.4C5.3,4.6,5.2,4.5,5.1,4.3C5.4,3.9,5.7,3.5,6,3V2.6H3.7V3h1.8
		C5.2,3.4,5,3.7,4.8,4C4.6,3.8,4.4,3.6,4.2,3.5z M16.2,6.7h-4.7v2H12V8.4h3.7v0.3h0.5V6.7z M12,7.9V7.1h3.7v0.8H12z M11.5,4.1v2h5.2
		V5.7h-2.2V5.2h1.8V4.8h-1.8V4.3h1.8V3.9h-1.8V3.4h2.1V3h-2c-0.1-0.3-0.2-0.5-0.3-0.7l-0.5,0.1C13.8,2.5,13.9,2.7,14,3h-1.7
		c0.1-0.2,0.2-0.4,0.3-0.6L12,2.3c-0.3,0.8-0.8,1.5-1.5,2.2l0.2,0.5C10.9,4.7,11.2,4.4,11.5,4.1z M13.9,5.7h-1.9V5.2h1.9V5.7z
		 M13.9,4.8h-1.9V4.3h1.9V4.8z M13.9,3.9h-1.9V3.5c0,0,0,0,0-0.1h1.9V3.9z"/>
</g>
</svg>
