<?xml version="1.0" encoding="utf-8"?>
<!-- Generator: Adobe Illustrator 21.1.0, SVG Export Plug-In . SVG Version: 6.00 Build 0)  -->
<svg version="1.1" id="图层_1" xmlns="http://www.w3.org/2000/svg" xmlns:xlink="http://www.w3.org/1999/xlink" x="0px" y="0px"
	 viewBox="0 0 20 11" style="enable-background:new 0 0 20 11;" xml:space="preserve">
<style type="text/css">
	.st0{fill:#333333;}
</style>
<title>icon_fufei</title>
<desc>Created with Sketch.</desc>
<g>
	<rect x="7.5" y="3.7" class="st0" width="0.8" height="2"/>
	<rect x="5.9" y="3.7" class="st0" width="0.8" height="2"/>
	<path class="st0" d="M0,0v11h20V0H0z M10.6,2.2h3.2c-0.1-0.2-0.2-0.4-0.3-0.6l0.9-0.2c0.1,0.2,0.2,0.5,0.3,0.7h3.2v1.6H17V3h-5.6
		v0.8h-0.9V2.2z M4.1,9.1C3.9,9.3,3.6,9.4,3.3,9.4c-0.3,0-0.6,0-0.7,0L2.3,8.5c0.3,0,0.6,0.1,0.8,0.1c0.2,0,0.4-0.1,0.4-0.1
		c0.2-0.2,0.2-0.8,0.2-1.9c0-0.2,0-0.4,0-0.6c-0.4,0.5-0.8,1-1.4,1.3L1.9,6.6c0.7-0.5,1.3-1.1,1.7-1.7C3.6,4.5,3.5,4.3,3.4,4
		c0,0,0,0,0,0c-0.3,0.2-0.6,0.5-1,0.7L1.9,3.9C2.3,3.7,2.6,3.5,3,3.2c-0.2-0.4-0.5-0.7-0.9-1l0.7-0.5C3.1,2,3.4,2.3,3.6,2.6
		c0.3-0.3,0.5-0.6,0.7-1l0.7,0.5c-0.3,0.5-0.7,1-1,1.3c0,0.1,0.1,0.2,0.1,0.3c0.3,0.7,0.4,1.7,0.4,2.9C4.6,8,4.4,8.8,4.1,9.1z
		 M8.8,9.5C8.8,9.2,8.7,9,8.7,8.8C7.8,9,6.6,9.1,4.9,9.3L4.7,8.4c0.7,0,1.4-0.1,1.9-0.1V6.6H5V2.9h1.6V1.6h0.9v1.3h1.7v3.6H7.6v1.6
		C7.9,8.1,8.2,8,8.5,8C8.4,7.7,8.3,7.3,8.2,7l0.7-0.2c0.3,0.7,0.5,1.5,0.8,2.5L8.8,9.5z M17.5,9c-0.9-0.8-1.5-1.7-1.9-2.8
		c-0.1,0-0.2,0.1-0.3,0.1c0.1,0.4,0.2,0.8,0.2,1.2c0,0.7-0.1,1.2-0.3,1.4c-0.2,0.3-0.7,0.5-1.5,0.5h-0.3l-0.3-0.8h0.4
		c0.5,0,0.7-0.1,0.9-0.2c0.1-0.2,0.2-0.5,0.2-0.9c0-0.1,0-0.1,0-0.2C13.6,8,12.5,8.6,11,9l-0.4-0.8c1.7-0.5,2.9-1.1,3.9-1.8
		c-0.1-0.2-0.1-0.3-0.2-0.4c-0.8,0.6-1.8,1.1-3.1,1.4l-0.4-0.8c1.4-0.3,2.4-0.8,3.2-1.3c-0.1-0.1-0.1-0.2-0.2-0.3c0,0,0,0,0,0
		c-0.5,0.3-1.3,0.6-2.4,0.9l-0.5-0.7c0.8-0.2,1.5-0.4,2.2-0.7c0.2-0.1,0.3-0.1,0.5-0.2h-1.8V3.6h5v0.8h-1.9
		c-0.2,0.1-0.4,0.2-0.6,0.4c0.2,0.3,0.4,0.5,0.6,0.8c0.7-0.2,1.4-0.5,2.1-1l0.6,0.6c-0.4,0.3-0.9,0.5-1.4,0.7c0.4,1,1,1.7,1.9,2.3
		L17.5,9z"/>
</g>
</svg>
