<svg xmlns="http://www.w3.org/2000/svg" viewBox="0 0 32 31"><defs><style>.cls-1{fill:#ffffff;}</style></defs><title>资源 8</title><g id="图层_2" data-name="图层 2"><g id="图层_1-2" data-name="图层 1"><path class="cls-1" d="M16,0a1,1,0,0,0-1,1V25a1,1,0,0,0,2,0V1a1,1,0,0,0-1-1Z"/><path class="cls-1" d="M3,11a1,1,0,0,0-.71.3,1,1,0,0,0,0,1.41l13.05,13a1,1,0,0,0,1.42,0,1.2,1.2,0,0,0,0-1.41L3.72,11.3A1,1,0,0,0,3,11Z"/><path class="cls-1" d="M29.69,12.72h0M29,11a1,1,0,0,0-.71.3l-13.05,13a1.2,1.2,0,0,0,0,1.41,1,1,0,0,0,1.42,0l13.05-13a1,1,0,0,0,0-1.41A1,1,0,0,0,29,11Z"/><path class="cls-1" d="M1,23a1,1,0,0,0-1,1v6a.94.94,0,0,0,1,1,.94.94,0,0,0,1-1V24a1,1,0,0,0-1-1Z"/><path class="cls-1" d="M31,23a1,1,0,0,0-1,1v6a1,1,0,0,0,2,0V24a1,1,0,0,0-1-1Z"/><path class="cls-1" d="M31,29H1a1,1,0,0,0,0,2H31a1,1,0,0,0,0-2Z"/></g></g></svg>