<svg xmlns="http://www.w3.org/2000/svg" viewBox="0 0 34 34"><defs><style>.cls-1{fill:#484848;}.cls-2{fill:none;stroke:#484848;stroke-linecap:round;stroke-miterlimit:10;stroke-width:2px;}</style></defs><title>资源 5</title><g id="图层_2" data-name="图层 2"><g id="图层_1-2" data-name="图层 1"><path class="cls-1" d="M20,2V32L10,25H2V9h8L20,2m0-2a2,2,0,0,0-1.15.36L9.37,7H2A2,2,0,0,0,0,9V25a2,2,0,0,0,2,2H9.37l9.48,6.64A2,2,0,0,0,22,32V2a2,2,0,0,0-2-2Z"/><path class="cls-2" d="M26,24.93A8,8,0,0,0,26,9.07"/></g></g></svg>