<svg xmlns="http://www.w3.org/2000/svg" viewBox="0 0 36 32"><defs><style>.cls-1{fill:#e13228;}</style></defs><title>资源 16</title><g id="图层_2" data-name="图层 2"><g id="图层_1-2" data-name="图层 1"><path class="cls-1" d="M36,10c0-.2,0-.39-.06-.59l0-.16A10,10,0,0,0,27.61.16,8.6,8.6,0,0,0,26.1,0H26l-.27,0a7.8,7.8,0,0,0-1.12.11A9.94,9.94,0,0,0,18,4.05,9.94,9.94,0,0,0,11.38.14,7.8,7.8,0,0,0,10.27,0L10,0H9.9A8.6,8.6,0,0,0,8.39.16,10,10,0,0,0,.08,9.25l0,.16C0,9.61,0,9.8,0,10c0,0,0,.09,0,.13C-.21,16.37,4.3,24.61,18,32c13.7-7.39,18.21-15.63,18-21.87C36,10.09,36,10,36,10Z"/></g></g></svg>