<svg xmlns="http://www.w3.org/2000/svg" viewBox="0 0 36 32"><defs><style>.cls-1{fill:#bcbcbc;}</style></defs><title>资源 9</title><g id="图层_2" data-name="图层 2"><g id="图层_1-2" data-name="图层 1"><path class="cls-1" d="M26.17,2h0M10,2l.23,0a5.84,5.84,0,0,1,.83.08h.08A7.91,7.91,0,0,1,16.4,5.25L18,7.4l1.6-2.15A7.91,7.91,0,0,1,24.9,2.12H25A5.8,5.8,0,0,1,25.79,2L26,2h.05a6.57,6.57,0,0,1,1.16.12h.05A7.93,7.93,0,0,1,33.93,9.4v.18c0,.12,0,.24,0,.36v0s0,.09,0,.14v.1c.12,3.15-1.24,11.26-16,19.51C3.25,21.46,1.9,13.35,2,10.21v-.1S2,10,2,10v0c0-.12,0-.24,0-.36V9.4A7.93,7.93,0,0,1,8.71,2.14h.05A6.56,6.56,0,0,1,9.92,2h0M26,0l-.27,0a7.8,7.8,0,0,0-1.12.11A9.94,9.94,0,0,0,18,4.05,9.94,9.94,0,0,0,11.38.14,7.8,7.8,0,0,0,10.27,0L10,0H9.9A8.6,8.6,0,0,0,8.39.16,10,10,0,0,0,.08,9.25l0,.16C0,9.61,0,9.8,0,10c0,0,0,.09,0,.13C-.21,16.37,4.3,24.61,18,32c13.7-7.39,18.21-15.63,18-21.87,0,0,0-.09,0-.13,0-.2,0-.39-.06-.59l0-.16A10,10,0,0,0,27.61.16,8.6,8.6,0,0,0,26.1,0Z"/></g></g></svg>