<svg xmlns="http://www.w3.org/2000/svg" viewBox="0 0 35.24 34"><defs><style>.cls-1{fill:#000000;}</style></defs><title>资源 6</title><g id="图层_2" data-name="图层 2"><g id="图层_1-2" data-name="图层 1"><path class="cls-1" d="M20,2V32L10,25H2V9h8L20,2m0-2a2,2,0,0,0-1.15.36L9.37,7H2A2,2,0,0,0,0,9V25a2,2,0,0,0,2,2H9.37l9.48,6.64A2,2,0,0,0,22,32V2a2,2,0,0,0-2-2Z"/><rect class="cls-1" x="29" y="10" width="2" height="14" rx="1" ry="1" transform="translate(-3.23 26.19) rotate(-45)"/><rect class="cls-1" x="29" y="10" width="2" height="14" rx="1" ry="1" transform="translate(20.81 -16.23) rotate(45)"/></g></g></svg>