<svg id="图层_1" data-name="图层 1" xmlns="http://www.w3.org/2000/svg" viewBox="0 0 36 36"><defs><style>.cls-1{fill:#555;}</style></defs><title>icon_play</title><path class="cls-1" d="M18,1A17,17,0,1,1,1,18,17,17,0,0,1,18,1m0-1A18,18,0,1,0,36,18,18,18,0,0,0,18,0Z"/><path class="cls-1" d="M14.5,11h0A1.5,1.5,0,0,1,16,12.5v11A1.5,1.5,0,0,1,14.5,25h0A1.5,1.5,0,0,1,13,23.5v-11A1.5,1.5,0,0,1,14.5,11Z"/><path class="cls-1" d="M21.5,11h0A1.5,1.5,0,0,1,23,12.5v11A1.5,1.5,0,0,1,21.5,25h0A1.5,1.5,0,0,1,20,23.5v-11A1.5,1.5,0,0,1,21.5,11Z"/></svg>