<?xml version="1.0" encoding="utf-8"?>
<!-- Generator: Adobe Illustrator 21.1.0, SVG Export Plug-In . SVG Version: 6.00 Build 0)  -->
<svg version="1.1" id="图层_1" xmlns="http://www.w3.org/2000/svg" xmlns:xlink="http://www.w3.org/1999/xlink" x="0px" y="0px"
	 viewBox="0 0 28 28" style="enable-background:new 0 0 28 28;" xml:space="preserve">
<style type="text/css">
	.st0{fill:#bcbcbc;}
	.st1{fill:#bcbcbc;stroke:#bcbcbc;stroke-width:2;stroke-linecap:round;stroke-linejoin:round;}
</style>
<path class="st0" d="M14,1c7.2,0,13,5.8,13,13s-5.8,13-13,13S1,21.2,1,14S6.8,1,14,1 M0,14c0,7.7,6.3,14,14,14s14-6.3,14-14
	S21.7,0,14,0S0,6.3,0,14z"/>
<g>
	<polygon class="st1" points="17.5,14 9.5,9.4 9.5,18.6 	"/>
	<path class="st0" d="M19,19.6L19,19.6c-0.3,0-0.5-0.2-0.5-0.5V8.9c0-0.3,0.2-0.5,0.5-0.5h0c0.3,0,0.5,0.2,0.5,0.5v10.2
		C19.5,19.4,19.3,19.6,19,19.6z"/>
</g>
</svg>
