<svg xmlns="http://www.w3.org/2000/svg" viewBox="0 0 31 31"><defs><style>.cls-1{fill:#484848;}</style></defs><title>资源 10</title><g id="图层_2" data-name="图层 2"><g id="图层_1-2" data-name="图层 1"><rect class="cls-1" y="14" width="20" height="2" rx="1" ry="1"/><rect class="cls-1" y="1" width="24" height="2" rx="1" ry="1"/><path class="cls-1" d="M15.21,29H.79A.92.92,0,0,1,0,28H0a.92.92,0,0,1,.79-1H15.21A.92.92,0,0,1,16,28h0A.92.92,0,0,1,15.21,29Z"/><rect class="cls-1" x="16.5" y="12.5" width="27" height="2" rx="1" ry="1" transform="translate(43.5 -16.5) rotate(90)"/><path class="cls-1" d="M25.6,24c1.84,0,3.4,1.14,3.4,2.5S27.44,29,25.6,29s-3.4-1.14-3.4-2.5S23.76,24,25.6,24m0-2c-3,0-5.4,2-5.4,4.5S22.62,31,25.6,31,31,29,31,26.5,28.58,22,25.6,22Z"/></g></g></svg>