<?xml version="1.0" encoding="utf-8"?>
<!-- Generator: Adobe Illustrator 21.1.0, SVG Export Plug-In . SVG Version: 6.00 Build 0)  -->
<svg version="1.1" id="图层_1" xmlns="http://www.w3.org/2000/svg" xmlns:xlink="http://www.w3.org/1999/xlink" x="0px" y="0px"
	 viewBox="0 0 28 28" style="enable-background:new 0 0 28 28;" xml:space="preserve">
<style type="text/css">
	.st0{fill:#E13228;}
	.st1{fill:#E13228;stroke:#E13228;stroke-width:2;stroke-linecap:round;stroke-linejoin:round;}
</style>
<title>资源 40</title>
<path class="st0" d="M14,1c7.2,0,13,5.8,13,13s-5.8,13-13,13S1,21.2,1,14S6.8,1,14,1 M14,0C6.3,0,0,6.3,0,14s6.3,14,14,14
	s14-6.3,14-14S21.7,0,14,0z"/>
<g>
	<polygon class="st1" points="18.5,18.6 18.5,9.4 10.5,14 	"/>
	<path class="st0" d="M9,19.6L9,19.6c0.3,0,0.5-0.2,0.5-0.5V8.9c0-0.3-0.2-0.5-0.5-0.5h0c-0.3,0-0.5,0.2-0.5,0.5v10.2
		C8.5,19.4,8.7,19.6,9,19.6z"/>
</g>
</svg>
