<?xml version="1.0" encoding="utf-8"?>
<!-- Generator: Adobe Illustrator 21.1.0, SVG Export Plug-In . SVG Version: 6.00 Build 0)  -->
<svg version="1.1" id="图层_1" xmlns="http://www.w3.org/2000/svg" xmlns:xlink="http://www.w3.org/1999/xlink" x="0px" y="0px"
	 viewBox="0 0 36 36" style="enable-background:new 0 0 36 36;" xml:space="preserve">
<style type="text/css">
	.st0{fill:#E13228;}
</style>
<title>资源 41</title>
<g id="图层_2_1_">
	<g id="图层_1-2_1_">
		<path class="st0" d="M18,1c9.4,0,17,7.6,17,17s-7.6,17-17,17S1,27.4,1,18S8.6,1,18,1 M18,0C8.1,0,0,8.1,0,18s8.1,18,18,18
			s18-8.1,18-18S27.9,0,18,0z"/>
		<path class="st0" d="M15,25.1c-0.6,0-1-0.4-1-1V12c0-0.6,0.4-1,1-1c0.2,0,0.4,0,0.5,0.1l10.2,6c0.5,0.3,0.6,0.9,0.3,1.4
			c-0.1,0.1-0.2,0.3-0.3,0.3l-10.2,6C15.4,25,15.2,25.1,15,25.1z"/>
	</g>
</g>
</svg>
