<?xml version="1.0" encoding="utf-8"?>
<!-- Generator: Adobe Illustrator 19.0.0, SVG Export Plug-In . SVG Version: 6.00 Build 0)  -->
<svg version="1.1" id="图层_1" xmlns="http://www.w3.org/2000/svg" xmlns:xlink="http://www.w3.org/1999/xlink" x="0px" y="0px"
	 viewBox="-289 413.9 17 14" style="enable-background:new -289 413.9 17 14;" xml:space="preserve">
<style type="text/css">
	.st0{fill:#BCBCBC;}
</style>
<title>词@1x</title>
<desc>Created with Sketch.</desc>
<g id="Page-1">
	<path id="词" class="st0" d="M-272.5,414.9v12h-1v-12h-8v-1h9V414.9z M-276.5,420.9h-4v3h4V420.9z M-275.5,420.9v3v1h-6v-1v-3v-1
		h6V420.9z M-284.5,418.3v8.6v1h-1v-1v-8.6h-3v-1h4V418.3L-284.5,418.3z M-283.5,426.9v1h-1v-1v-1h1h1v1H-283.5z M-287.5,413.9h4v1
		h-4V413.9z M-281.5,417.3h6v1h-6V417.3z M-277.5,426.9h4v1h-4V426.9z"/>
</g>
</svg>
