<?xml version="1.0" encoding="utf-8"?>
<!-- Generator: Adobe Illustrator 21.1.0, SVG Export Plug-In . SVG Version: 6.00 Build 0)  -->
<svg version="1.1" id="组_84" xmlns="http://www.w3.org/2000/svg" xmlns:xlink="http://www.w3.org/1999/xlink" x="0px" y="0px"
	 viewBox="0 0 10 10" style="enable-background:new 0 0 10 10;" xml:space="preserve">
<style type="text/css">
	.st0{fill:#E13228;}
</style>
<path id="圆角矩形_1269" class="st0" d="M3,1L3,1c0.6,0,1,0.4,1,1v6c0,0.6-0.4,1-1,1l0,0C2.4,9,2,8.6,2,8V2C2,1.4,2.4,1,3,1z"/>
<path id="圆角矩形_1269_拷贝" class="st0" d="M7,1L7,1c0.6,0,1,0.4,1,1v6c0,0.6-0.4,1-1,1l0,0C6.4,9,6,8.6,6,8V2
	C6,1.4,6.4,1,7,1z"/>
</svg>
