<?xml version="1.0" encoding="utf-8"?>
<!-- Generator: Adobe Illustrator 21.1.0, SVG Export Plug-In . SVG Version: 6.00 Build 0)  -->
<svg version="1.1" id="图层_1" xmlns="http://www.w3.org/2000/svg" xmlns:xlink="http://www.w3.org/1999/xlink" x="0px" y="0px"
	 viewBox="0 0 20 15" style="enable-background:new 0 0 20 15;" xml:space="preserve">
<style type="text/css">
	.st0{fill:none;stroke:#000000;stroke-width:1.5;}
	.st1{fill:#000000;}
</style>
<path id="圆角矩形_3338" class="st0" d="M18,10.5v1.9c0,1-0.8,1.9-1.9,1.9H2.9c-1,0-1.9-0.8-1.9-1.9V3.9C1,2.8,1.9,2,2.9,2h3.7"
	/>
<g id="圆角矩形_3336_拷贝">
	<path class="st1" d="M18,1.5c0.3,0,0.5,0.2,0.5,0.5v5c0,0.3-0.2,0.5-0.5,0.5h-8C9.7,7.5,9.5,7.3,9.5,7V2c0-0.3,0.2-0.5,0.5-0.5H18
		 M18,0h-8C8.9,0,8,0.9,8,2v5c0,1.1,0.9,2,2,2h8c1.1,0,2-0.9,2-2V2C20,0.9,19.1,0,18,0L18,0z"/>
</g>
</svg>
